<svg width="218" height="59" viewBox="0 0 218 59" fill="none" xmlns="http://www.w3.org/2000/svg">
<rect width="218" height="59" rx="29.5" fill="white"/>
<circle cx="33" cy="29" r="13" fill="#5E6C5B"/>
<path d="M69.384 15.9L69.371 17.031H64.691L64.704 25H63.417V15.9H69.384ZM69.3174 18.11H74.6084V25H73.3604V19.202H70.3964L70.3184 20.736C70.2014 23.167 69.8764 25.104 68.3164 25.104C68.0824 25.104 67.8354 25.065 67.5494 24.987L67.6274 23.934C67.7444 23.96 67.8484 23.973 67.9394 23.973C69.0574 23.973 69.1094 22.283 69.2004 20.658L69.3174 18.11ZM79.4785 18.045C81.3635 18.045 82.4295 18.955 82.4295 20.84V25H81.2465V24.09C80.8305 24.714 80.0635 25.078 78.9845 25.078C77.4245 25.078 76.4365 24.246 76.4365 23.05C76.4365 21.945 77.1515 21.035 79.2055 21.035H81.1815V20.788C81.1815 19.735 80.5705 19.124 79.3355 19.124C78.5165 19.124 77.6845 19.41 77.1515 19.865L76.6315 18.929C77.3465 18.357 78.3735 18.045 79.4785 18.045ZM79.1925 24.116C80.1285 24.116 80.8695 23.687 81.1815 22.894V21.932H79.2575C78.0225 21.932 77.6715 22.413 77.6715 22.998C77.6715 23.687 78.2435 24.116 79.1925 24.116ZM89.3698 21.425C90.2798 21.659 90.7088 22.231 90.7088 23.102C90.7088 24.298 89.8248 25 87.9918 25H84.6768V18.11H87.8748C89.4998 18.11 90.4748 18.747 90.4748 19.878C90.4748 20.619 90.0588 21.152 89.3698 21.425ZM85.8988 19.072V21.074H87.7708C88.7198 21.074 89.2268 20.723 89.2268 20.06C89.2268 19.397 88.7198 19.072 87.7708 19.072H85.8988ZM87.9008 24.038C88.9278 24.038 89.4608 23.726 89.4608 23.024C89.4608 22.309 89.0058 21.971 87.9788 21.971H85.8988V24.038H87.9008ZM92.6621 25V18.11H93.9101V21.035H97.8361V18.11H99.0841V25H97.8361V22.114H93.9101V25H92.6621ZM104.618 20.45C106.36 20.463 107.296 21.282 107.296 22.699C107.296 24.194 106.256 25.026 104.41 25.013L101.511 25V18.11H102.759V20.437L104.618 20.45ZM108.323 25V18.11H109.571V25H108.323ZM104.319 24.064C105.437 24.077 106.035 23.609 106.035 22.686C106.035 21.776 105.45 21.386 104.319 21.373L102.759 21.347V24.051L104.319 24.064ZM115.221 17.213C113.96 17.213 113.193 16.589 113.18 15.419H114.025C114.038 16.069 114.506 16.485 115.208 16.485C115.923 16.485 116.391 16.069 116.404 15.419H117.275C117.249 16.589 116.482 17.213 115.221 17.213ZM111.997 25V18.11H113.245V23.128L117.47 18.11H118.601V25H117.353V19.982L113.141 25H111.997ZM127.466 25.078C125.399 25.078 123.878 23.609 123.878 21.555C123.878 19.501 125.399 18.045 127.466 18.045C129.533 18.045 131.041 19.501 131.041 21.555C131.041 23.609 129.533 25.078 127.466 25.078ZM127.466 23.986C128.792 23.986 129.78 23.024 129.78 21.555C129.78 20.086 128.792 19.137 127.466 19.137C126.14 19.137 125.139 20.086 125.139 21.555C125.139 23.024 126.14 23.986 127.466 23.986ZM141.54 21.542C141.54 23.687 140.045 24.948 137.471 25.091V27.522H136.249V25.091C133.675 24.948 132.193 23.7 132.193 21.542C132.193 19.41 133.662 18.175 136.249 18.045V15.354L137.471 15.354V18.045C140.032 18.188 141.54 19.41 141.54 21.542ZM133.428 21.542C133.428 23.011 134.364 23.856 136.249 23.986V19.15C134.351 19.28 133.428 20.112 133.428 21.542ZM137.471 23.999C139.356 23.856 140.305 23.024 140.305 21.542C140.305 20.099 139.356 19.28 137.471 19.15V23.999ZM143.304 25V18.11H144.552V23.128L148.777 18.11H149.908V25H148.66V19.982L144.448 25H143.304ZM155.333 25.078C153.214 25.078 151.693 23.609 151.693 21.555C151.693 19.501 153.214 18.045 155.333 18.045C156.568 18.045 157.595 18.552 158.141 19.514L157.192 20.125C156.75 19.449 156.074 19.137 155.32 19.137C153.968 19.137 152.954 20.086 152.954 21.555C152.954 23.05 153.968 23.986 155.32 23.986C156.074 23.986 156.75 23.674 157.192 22.998L158.141 23.596C157.595 24.558 156.568 25.078 155.333 25.078Z" fill="#3D3D3D"/>
<path d="M70.528 43.168H71.893V46.041H70.996V44H63.053L63.04 46.041H62.143L62.156 43.168H62.611C63.911 43.09 64.197 40.75 64.288 37.851L64.392 34.9H70.528V43.168ZM65.146 37.942C65.068 40.308 64.847 42.505 63.976 43.168H69.579V35.732H65.224L65.146 37.942ZM76.7338 40.438C77.6958 40.659 78.2548 41.231 78.2548 42.037C78.2548 43.272 76.8898 44.078 75.1868 44.078C74.2118 44.078 73.2108 43.792 72.4828 43.233L72.7948 42.544C73.4318 43.025 74.3158 43.285 75.1478 43.285C76.3828 43.285 77.3058 42.791 77.3058 41.959C77.3058 41.231 76.6038 40.802 75.4598 40.802H74.2898V40.126H75.4078C76.4088 40.126 77.1108 39.723 77.1108 39.047C77.1108 38.293 76.3048 37.877 75.2128 37.877C74.5108 37.877 73.7568 38.059 73.0288 38.436L72.7688 37.721C73.6138 37.279 74.4718 37.084 75.3038 37.084C76.8638 37.084 78.0598 37.799 78.0598 38.917C78.0598 39.632 77.5268 40.178 76.7338 40.438ZM86.3431 40.581C86.3431 40.659 86.3301 40.763 86.3301 40.867H80.6101C80.7141 42.297 81.8061 43.246 83.3011 43.246C84.1331 43.246 84.8741 42.947 85.3941 42.349L85.9141 42.947C85.3031 43.675 84.3541 44.065 83.2751 44.065C81.1431 44.065 79.6871 42.609 79.6871 40.581C79.6871 38.553 81.1041 37.11 83.0281 37.11C84.9521 37.11 86.3431 38.527 86.3431 40.581ZM83.0281 37.903C81.7021 37.903 80.7271 38.839 80.6101 40.178H85.4591C85.3421 38.839 84.3671 37.903 83.0281 37.903ZM91.9092 37.11C93.8592 37.11 95.3152 38.514 95.3152 40.581C95.3152 42.661 93.8592 44.065 91.9092 44.065C90.8172 44.065 89.8812 43.597 89.3092 42.713V46.522H88.3862V37.162H89.2702V38.514C89.8292 37.604 90.7782 37.11 91.9092 37.11ZM91.8442 43.246C93.2872 43.246 94.3922 42.18 94.3922 40.581C94.3922 38.995 93.2872 37.916 91.8442 37.916C90.3882 37.916 89.2962 38.995 89.2962 40.581C89.2962 42.18 90.3882 43.246 91.8442 43.246ZM105.156 44L103.05 40.958H101.568V44H100.645V40.958H99.1631L97.0701 44H95.9651L98.4221 40.477L96.1601 37.162H97.1611L99.1631 40.165H100.645V37.162H101.568V40.165H103.05L105.065 37.162H106.066L103.804 40.49L106.261 44H105.156ZM107.797 44V37.162H108.72V42.596L113.283 37.162H114.102V44H113.179V38.566L108.629 44H107.797ZM116.748 44V37.162H117.671V40.191H121.974V37.162L122.897 37.162V44H121.974V40.984H117.671V44L116.748 44ZM128.38 44.065C126.339 44.065 124.857 42.622 124.857 40.581C124.857 38.54 126.339 37.11 128.38 37.11C129.537 37.11 130.512 37.565 131.058 38.462L130.369 38.93C129.901 38.241 129.173 37.916 128.38 37.916C126.885 37.916 125.793 38.982 125.793 40.581C125.793 42.193 126.885 43.246 128.38 43.246C129.173 43.246 129.901 42.934 130.369 42.245L131.058 42.713C130.512 43.597 129.537 44.065 128.38 44.065ZM137.85 44L135.328 40.958H133.768V44H132.845V37.162H133.768V40.165H135.341L137.746 37.162H138.747L136.056 40.477L138.942 44H137.85ZM142.979 44.065C140.977 44.065 139.495 42.609 139.495 40.581C139.495 38.553 140.977 37.11 142.979 37.11C144.981 37.11 146.45 38.553 146.45 40.581C146.45 42.609 144.981 44.065 142.979 44.065ZM142.979 43.246C144.435 43.246 145.514 42.18 145.514 40.581C145.514 38.982 144.435 37.916 142.979 37.916C141.523 37.916 140.431 38.982 140.431 40.581C140.431 42.18 141.523 43.246 142.979 43.246ZM153.258 37.162V37.981H149.345V44H148.422V37.162H153.258ZM157.096 44.065C155.094 44.065 153.612 42.609 153.612 40.581C153.612 38.553 155.094 37.11 157.096 37.11C159.098 37.11 160.567 38.553 160.567 40.581C160.567 42.609 159.098 44.065 157.096 44.065ZM157.096 43.246C158.552 43.246 159.631 42.18 159.631 40.581C159.631 38.982 158.552 37.916 157.096 37.916C155.64 37.916 154.548 38.982 154.548 40.581C154.548 42.18 155.64 43.246 157.096 43.246ZM162.427 42.648C162.83 42.648 163.116 42.96 163.116 43.35C163.116 43.571 163.064 43.74 162.934 44.104L162.388 45.898H161.764L162.206 44.013C161.933 43.935 161.738 43.688 161.738 43.35C161.738 42.947 162.037 42.648 162.427 42.648ZM169.078 43.168H174.083V44H167.7V43.337L171.483 39.632C172.51 38.618 172.705 38.007 172.705 37.383C172.705 36.33 171.964 35.68 170.573 35.68C169.507 35.68 168.688 36.005 168.09 36.694L167.427 36.122C168.129 35.29 169.26 34.822 170.651 34.822C172.497 34.822 173.667 35.758 173.667 37.279C173.667 38.15 173.394 38.93 172.172 40.126L169.078 43.168ZM182.688 40.776V41.608H180.868V44H179.932V41.608L174.797 41.608V40.932L179.62 34.9H180.66L176.006 40.776L179.958 40.776V38.67H180.868V40.776H182.688ZM191.283 40.776V41.608H189.463V44H188.527V41.608H183.392V40.932L188.215 34.9H189.255L184.601 40.776H188.553V38.67H189.463V40.776H191.283Z" fill="#3D3D3D" fill-opacity="0.6"/>
</svg>
