<svg width="11" height="16" viewBox="0 0 11 16" fill="none" xmlns="http://www.w3.org/2000/svg">
<g clip-path="url(#clip0_4_55)">
<path d="M5.50959 13.775C5.43235 13.656 5.35698 13.5339 5.27871 13.4069L5.27374 13.3988L5.26846 13.3909C4.29991 11.9452 3.34279 10.4532 2.58018 8.96834C2.18693 8.20267 1.82908 7.50053 1.65134 6.75073L1.64784 6.73598L1.64346 6.72146C1.35884 5.77939 1.47236 4.905 1.86842 4.13387C2.50205 2.90017 3.46347 2.22862 4.88328 1.93967C6.99736 1.55291 9.1332 3.06481 9.53764 5.12918C9.64607 5.76949 9.54052 6.36836 9.30232 7.00607L9.30214 7.006L9.29767 7.01905C8.92499 8.10747 8.36151 9.20782 7.72512 10.261L7.72508 10.261L7.72186 10.2665C7.0357 11.4355 6.2983 12.605 5.50959 13.775Z" stroke="#3D3D3D"/>
<circle cx="5.5" cy="5.5" r="1.5" fill="#3D3D3D"/>
</g>
<defs>
<clipPath id="clip0_4_55">
<rect width="11" height="16" fill="white"/>
</clipPath>
</defs>
</svg>
