<svg width="22" height="22" viewBox="0 0 22 22" fill="none" xmlns="http://www.w3.org/2000/svg">
<g clip-path="url(#clip0_4_118)">
<path d="M16.2788 12.6414C16.236 12.6209 14.6321 11.8311 14.3471 11.7285C14.2308 11.6867 14.1061 11.6459 13.9735 11.6459C13.757 11.6459 13.575 11.7539 13.4333 11.9659C13.2731 12.204 12.7881 12.7709 12.6383 12.9403C12.6187 12.9627 12.592 12.9894 12.576 12.9894C12.5616 12.9894 12.3134 12.8872 12.2383 12.8545C10.5178 12.1072 9.21183 10.3099 9.03276 10.0069C9.00719 9.9633 9.00612 9.94352 9.0059 9.94352C9.01219 9.92044 9.07005 9.86244 9.0999 9.83252C9.18726 9.74609 9.2819 9.63216 9.37348 9.52194C9.41683 9.46973 9.46026 9.41744 9.5029 9.36816C9.63576 9.21359 9.6949 9.09359 9.76347 8.95459L9.7994 8.88237C9.96683 8.54973 9.82383 8.26902 9.77762 8.17837C9.73969 8.10252 9.06247 6.46809 8.99047 6.29637C8.81733 5.88202 8.58855 5.68909 8.27062 5.68909C8.24112 5.68909 8.27062 5.68909 8.1469 5.6943C7.99626 5.70066 7.1759 5.80866 6.81319 6.0373C6.42855 6.2798 5.77783 7.0528 5.77783 8.41223C5.77783 9.63573 6.55426 10.7909 6.88762 11.2303C6.8959 11.2414 6.91112 11.2639 6.93319 11.2962C8.20983 13.1606 9.80133 14.5423 11.4147 15.1868C12.9679 15.8072 13.7034 15.8789 14.1215 15.8789H14.1216C14.2973 15.8789 14.438 15.8652 14.562 15.8529L14.6408 15.8454C15.1773 15.7979 16.3565 15.1869 16.6247 14.4415C16.836 13.8544 16.8917 13.213 16.7511 12.9802C16.6548 12.8219 16.4889 12.7423 16.2788 12.6414Z" fill="#3D3D3D"/>
<path d="M11.1953 0C5.23698 0 0.389555 4.811 0.389555 10.7245C0.389555 12.6371 0.901412 14.5094 1.87105 16.1479L0.0151263 21.6226C-0.0194452 21.7246 0.00626912 21.8375 0.0817691 21.9144C0.136269 21.97 0.210198 22 0.285698 22C0.314626 22 0.343769 21.9956 0.372198 21.9866L6.08077 20.1726C7.64291 21.0072 9.40848 21.4478 11.1953 21.4478C17.1531 21.4479 22 16.6374 22 10.7245C22 4.811 17.1531 0 11.1953 0ZM11.1953 19.2139C9.51391 19.2139 7.88541 18.7284 6.48556 17.8098C6.43848 17.7789 6.38384 17.763 6.32884 17.763C6.29977 17.763 6.27063 17.7674 6.24227 17.7764L3.38263 18.6854L4.30577 15.9619C4.33563 15.8738 4.3207 15.7766 4.2657 15.7014C3.1997 14.2449 2.6362 12.5239 2.6362 10.7245C2.6362 6.04286 6.47577 2.234 11.1952 2.234C15.9141 2.234 19.7532 6.04286 19.7532 10.7245C19.7533 15.4056 15.9142 19.2139 11.1953 19.2139Z" fill="#3D3D3D"/>
</g>
<defs>
<clipPath id="clip0_4_118">
<rect width="22" height="22" fill="white"/>
</clipPath>
</defs>
</svg>
