<svg width="140" height="27" viewBox="0 0 140 27" fill="none" xmlns="http://www.w3.org/2000/svg">
<path fill-rule="evenodd" clip-rule="evenodd" d="M12.1097 0.952959C15.9458 0.63572 19.5266 1.35833 22.8517 3.1208C23.6247 3.61968 24.3002 4.21663 24.8785 4.91162C24.1353 5.72848 23.3246 6.48251 22.4463 7.17371C17.5081 3.34471 12.4411 3.18762 7.24545 6.70244C4.24451 9.52851 3.2649 12.8902 4.30661 16.7876C5.50138 20.2237 7.96731 22.4543 11.7044 23.4796C15.8198 24.2983 19.4005 23.3872 22.4463 20.7463C23.4362 21.4434 24.2133 22.2603 24.7772 23.1969C22.8714 25.0731 20.5406 26.2356 17.7847 26.6842C10.8911 27.8594 5.52017 25.7543 1.67178 20.3692C-1.33386 14.2433 -0.2867 8.808 4.8133 4.06333C6.99808 2.49708 9.43022 1.46029 12.1097 0.952959Z" fill="white"/>
<path fill-rule="evenodd" clip-rule="evenodd" d="M30.1482 26.9671C30.1482 23.3227 30.1482 19.6781 30.1482 16.0337C33.8317 16.0959 37.4799 16.0331 41.0928 15.8452C47.231 15.7 49.5618 12.8724 48.0853 7.36236C47.095 5.81584 45.6424 4.84188 43.7277 4.44049C40.4927 4.17935 37.2499 4.0851 33.9991 4.15773C33.9991 3.08951 33.9991 2.02131 33.9991 0.953098C37.4511 0.885914 40.8966 0.980168 44.3357 1.23586C51.0845 2.75876 53.6855 6.68599 52.1388 13.0176C51.1451 15.764 49.1522 17.5548 46.1598 18.3901C45.342 18.5548 44.5313 18.7433 43.7277 18.9556C40.4854 19.0498 37.2426 19.0813 33.9991 19.0498C33.9991 21.6889 33.9991 24.328 33.9991 26.9671C32.7155 26.9671 31.4318 26.9671 30.1482 26.9671Z" fill="white"/>
<path fill-rule="evenodd" clip-rule="evenodd" d="M57.5098 0.953125C63.928 0.953125 70.346 0.953125 76.7642 0.953125C76.7642 2.02134 76.7642 3.08954 76.7642 4.15775C70.346 4.15775 63.928 4.15775 57.5098 4.15775C57.5098 3.08954 57.5098 2.02134 57.5098 0.953125Z" fill="white"/>
<path fill-rule="evenodd" clip-rule="evenodd" d="M94.3971 4.34632C91.5278 4.15858 88.6228 4.09574 85.6819 4.15781C85.6819 7.86513 85.6819 11.5724 85.6819 15.2798C84.3984 15.2798 83.1146 15.2798 81.8311 15.2798C81.8311 10.5042 81.8311 5.7287 81.8311 0.953183C86.4931 0.921777 91.1547 0.953183 95.8159 1.04744C101.8 1.71551 105.887 4.63738 108.078 9.81304C109.544 14.9996 108.361 19.5551 104.531 23.4798C101.991 25.3826 99.0859 26.5137 95.8159 26.873C91.1547 26.9672 86.4931 26.9987 81.8311 26.9672C81.8311 25.899 81.8311 24.8309 81.8311 23.7626C86.7699 23.8435 91.7017 23.7492 96.6266 23.4798C102.981 21.562 105.582 17.509 104.43 11.3211C102.847 6.80065 99.5024 4.47573 94.3971 4.34632Z" fill="white"/>
<path fill-rule="evenodd" clip-rule="evenodd" d="M123.381 0.952899C124.738 0.890691 126.09 0.953521 127.434 1.14141C131.623 9.68708 135.811 18.2328 140 26.7784C138.604 27.0256 137.219 27.0256 135.845 26.7784C132.421 19.4657 128.941 12.1767 125.407 4.91156C121.876 12.1726 118.396 19.4615 114.969 26.7784C113.596 27.0256 112.211 27.0256 110.814 26.7784C115.061 18.1883 119.25 9.57972 123.381 0.952899Z" fill="white"/>
<path fill-rule="evenodd" clip-rule="evenodd" d="M94.3973 4.34592C91.5598 4.34592 88.7223 4.34592 85.8848 4.34592C85.9517 8.02318 85.8842 11.6676 85.6821 15.2794C85.6821 11.572 85.6821 7.86473 85.6821 4.15741C88.623 4.09534 91.528 4.15819 94.3973 4.34592Z" fill="white"/>
<path fill-rule="evenodd" clip-rule="evenodd" d="M57.5098 12.2637C63.928 12.2637 70.346 12.2637 76.7642 12.2637C76.7642 13.269 76.7642 14.2744 76.7642 15.2798C70.346 15.2798 63.928 15.2798 57.5098 15.2798C57.5098 14.2744 57.5098 13.269 57.5098 12.2637Z" fill="white"/>
<path fill-rule="evenodd" clip-rule="evenodd" d="M41.0927 15.8447C37.4798 16.0327 33.8315 16.0954 30.1481 16.0332C30.1481 19.6777 30.1481 23.3223 30.1481 26.9667C29.946 23.2921 29.8785 19.5847 29.9454 15.8447C33.6611 15.8447 37.377 15.8447 41.0927 15.8447Z" fill="white"/>
<path fill-rule="evenodd" clip-rule="evenodd" d="M57.5098 23.7622C63.928 23.7622 70.346 23.7622 76.7642 23.7622C76.7642 24.8305 76.7642 25.8986 76.7642 26.9668C70.346 26.9668 63.928 26.9668 57.5098 26.9668C57.5098 25.8986 57.5098 24.8305 57.5098 23.7622Z" fill="white"/>
</svg>
